Format : MPEG-4
Format profile : Base Media
Codec ID : isom
File size : 424 MiB
Duration : 1h 27mn
Overall bit rate : 676 Kbps
Movie name : TRANSPORTER_2
Genre : Action & Adventure
Writing application : Lavf52.13.0

Video
ID : 1
Format : MPEG-4 Visual
Format profile : Simple@L1
Format settings, BVOP : No
Format settings, QPel : No
Format settings, GMC : No warppoints
Format settings, Matrix : Default (H.263)
Codec ID : 20
Duration : 1h 27mn
Bit rate mode : Variable
Bit rate : 544 Kbps
Width : 640 pixels
Height : 480 pixels
Display aspect ratio : 4:3
Frame rate mode : Constant
Frame rate : 23.976 fps
Color space : YUV
Chroma subsampling : 4:2:0
Bit depth : 8 bits
Scan type : Progressive
Bits/(Pixel*Frame) : 0.074
Stream size : 341 MiB (80%)
Writing library : Lavc51.55.0

Audio
ID : 2
Format : AAC
Format/Info : Advanced Audio Codec
Format version : Version 4
Format profile : LC
Format settings, SBR : No
Codec ID : 40
Duration : 1h 27mn
Bit rate mode : Variable
Bit rate : 128 Kbps
Channel(s) : 2 channels
Channel positions : Front: L R
Sampling rate : 48.0 KHz
Stream size : 80.2 MiB (19%)